<mxfile host="Electron" modified="2025-09-03T07:30:47.192Z" agent="Mozilla/5.0 (Windows NT 10.0; Win64; x64) AppleWebKit/537.36 (KHTML, like Gecko) draw.io/21.2.8 Chrome/112.0.5615.165 Electron/24.2.0 Safari/537.36" etag="LauJ_-UhkrJJDhQFBK2Z" version="21.2.8" type="device">
  <diagram name="Page-1" id="BO802liTlGxy9ulYzy5F">
    <mxGraphModel dx="2901" dy="2373" grid="1" gridSize="10" guides="1" tooltips="1" connect="1" arrows="1" fold="1" page="1" pageScale="1" pageWidth="827" pageHeight="1169" math="0" shadow="0">
      <root>
        <mxCell id="0" />
        <mxCell id="1" parent="0" />
        <mxCell id="oySVZTRTqcOeVKJPg-e0-14" style="edgeStyle=orthogonalEdgeStyle;rounded=0;orthogonalLoop=1;jettySize=auto;html=1;" edge="1" parent="1" source="oySVZTRTqcOeVKJPg-e0-1" target="oySVZTRTqcOeVKJPg-e0-2">
          <mxGeometry relative="1" as="geometry" />
        </mxCell>
        <mxCell id="oySVZTRTqcOeVKJPg-e0-1" value="PROXY / GATEWAY&lt;br&gt;- Treafik" style="rounded=0;whiteSpace=wrap;html=1;" vertex="1" parent="1">
          <mxGeometry x="-60" y="-120" width="180" height="140" as="geometry" />
        </mxCell>
        <mxCell id="oySVZTRTqcOeVKJPg-e0-15" style="edgeStyle=orthogonalEdgeStyle;rounded=0;orthogonalLoop=1;jettySize=auto;html=1;" edge="1" parent="1" source="oySVZTRTqcOeVKJPg-e0-2" target="oySVZTRTqcOeVKJPg-e0-3">
          <mxGeometry relative="1" as="geometry" />
        </mxCell>
        <mxCell id="oySVZTRTqcOeVKJPg-e0-2" value="Order producer -service&lt;br&gt;- Golang (Gin)" style="rounded=0;whiteSpace=wrap;html=1;" vertex="1" parent="1">
          <mxGeometry x="210" y="-110" width="160" height="120" as="geometry" />
        </mxCell>
        <mxCell id="oySVZTRTqcOeVKJPg-e0-16" style="edgeStyle=orthogonalEdgeStyle;rounded=0;orthogonalLoop=1;jettySize=auto;html=1;entryX=0;entryY=0.5;entryDx=0;entryDy=0;" edge="1" parent="1" source="oySVZTRTqcOeVKJPg-e0-3" target="oySVZTRTqcOeVKJPg-e0-4">
          <mxGeometry relative="1" as="geometry" />
        </mxCell>
        <mxCell id="oySVZTRTqcOeVKJPg-e0-3" value="Message queue&lt;br&gt;- RabbitMQ" style="rounded=0;whiteSpace=wrap;html=1;" vertex="1" parent="1">
          <mxGeometry x="460" y="-110" width="170" height="120" as="geometry" />
        </mxCell>
        <mxCell id="oySVZTRTqcOeVKJPg-e0-4" value="Consumer-service&lt;br&gt;- Golang (Gin)" style="rounded=0;whiteSpace=wrap;html=1;" vertex="1" parent="1">
          <mxGeometry x="760" y="-105" width="150" height="110" as="geometry" />
        </mxCell>
        <mxCell id="oySVZTRTqcOeVKJPg-e0-17" style="edgeStyle=orthogonalEdgeStyle;rounded=0;orthogonalLoop=1;jettySize=auto;html=1;entryX=0;entryY=0.5;entryDx=0;entryDy=0;" edge="1" parent="1" source="oySVZTRTqcOeVKJPg-e0-5" target="oySVZTRTqcOeVKJPg-e0-1">
          <mxGeometry relative="1" as="geometry" />
        </mxCell>
        <mxCell id="oySVZTRTqcOeVKJPg-e0-5" value="Web" style="ellipse;shape=cloud;whiteSpace=wrap;html=1;" vertex="1" parent="1">
          <mxGeometry x="-400" y="-125" width="150.88" height="150" as="geometry" />
        </mxCell>
        <mxCell id="oySVZTRTqcOeVKJPg-e0-11" style="edgeStyle=orthogonalEdgeStyle;rounded=0;orthogonalLoop=1;jettySize=auto;html=1;entryX=0;entryY=0.75;entryDx=0;entryDy=0;" edge="1" parent="1" source="oySVZTRTqcOeVKJPg-e0-7" target="oySVZTRTqcOeVKJPg-e0-1">
          <mxGeometry relative="1" as="geometry" />
        </mxCell>
        <mxCell id="oySVZTRTqcOeVKJPg-e0-7" value="" style="verticalLabelPosition=bottom;verticalAlign=top;html=1;shadow=0;dashed=0;strokeWidth=1;shape=mxgraph.android.phone2;strokeColor=#c0c0c0;" vertex="1" parent="1">
          <mxGeometry x="-356.93" y="30" width="105.62" height="150" as="geometry" />
        </mxCell>
        <mxCell id="oySVZTRTqcOeVKJPg-e0-13" style="edgeStyle=orthogonalEdgeStyle;rounded=0;orthogonalLoop=1;jettySize=auto;html=1;entryX=0.005;entryY=0.111;entryDx=0;entryDy=0;entryPerimeter=0;" edge="1" parent="1" source="oySVZTRTqcOeVKJPg-e0-8" target="oySVZTRTqcOeVKJPg-e0-1">
          <mxGeometry relative="1" as="geometry" />
        </mxCell>
        <mxCell id="oySVZTRTqcOeVKJPg-e0-8" value="" style="shape=image;verticalLabelPosition=bottom;labelBackgroundColor=default;verticalAlign=top;aspect=fixed;imageAspect=0;image=data:image/svg+xml,PHN2ZyB4bWxuczp4bGluaz0iaHR0cDovL3d3dy53My5vcmcvMTk5OS94bGluayIgeG1sbnM9Imh0dHA6Ly93d3cudzMub3JnLzIwMDAvc3ZnIiB3aWR0aD0iNjI0IiBoZWlnaHQ9IjQyMyIgdmlld0JveD0iMCAwIDYyNCA0MjMiPjxkZWZzPjxyZWN0IHk9IjE4OC4xMTUiIHg9Ijg1LjEzOCIgd2lkdGg9IjEwNS45MDMiIHJ4PSIzLjAyOCIgaGVpZ2h0PSI3MC42NzMiIGlkPSJhIi8+PGZpbHRlciB5PSItMjEuMiUiIHg9Ii0xNC4yJSIgd2lkdGg9IjEyOC4zJSIgaGVpZ2h0PSIxNDIuNCUiIGlkPSJiIj48ZmVNb3JwaG9sb2d5IHJlc3VsdD0ic2hhZG93U3ByZWFkT3V0ZXIxIiByYWRpdXM9Ii41IiBvcGVyYXRvcj0iZGlsYXRlIiBpbj0iU291cmNlQWxwaGEiLz48ZmVPZmZzZXQgcmVzdWx0PSJzaGFkb3dPZmZzZXRPdXRlcjEiIGluPSJzaGFkb3dTcHJlYWRPdXRlcjEiLz48ZmVHYXVzc2lhbkJsdXIgc3RkRGV2aWF0aW9uPSI0LjUiIHJlc3VsdD0ic2hhZG93Qmx1ck91dGVyMSIgaW49InNoYWRvd09mZnNldE91dGVyMSIvPjxmZUNvbG9yTWF0cml4IHZhbHVlcz0iMCAwIDAgMCAwIDAgMCAwIDAgMCAwIDAgMCAwIDAgMCAwIDAgMC4wNyAwIiBpbj0ic2hhZG93Qmx1ck91dGVyMSIvPjwvZmlsdGVyPjxyZWN0IHk9IjI2OS4xODIiIHg9Ijg1LjEzOCIgd2lkdGg9IjEwNS45MDMiIHJ4PSIzLjAyOCIgaGVpZ2h0PSI3MC42NzMiIGlkPSJjIi8+PGZpbHRlciB5PSItMjEuMiUiIHg9Ii0xNC4yJSIgd2lkdGg9IjEyOC4zJSIgaGVpZ2h0PSIxNDIuNCUiIGlkPSJkIj48ZmVNb3JwaG9sb2d5IHJlc3VsdD0ic2hhZG93U3ByZWFkT3V0ZXIxIiByYWRpdXM9Ii41IiBvcGVyYXRvcj0iZGlsYXRlIiBpbj0iU291cmNlQWxwaGEiLz48ZmVPZmZzZXQgcmVzdWx0PSJzaGFkb3dPZmZzZXRPdXRlcjEiIGluPSJzaGFkb3dTcHJlYWRPdXRlcjEiLz48ZmVHYXVzc2lhbkJsdXIgc3RkRGV2aWF0aW9uPSI0LjUiIHJlc3VsdD0ic2hhZG93Qmx1ck91dGVyMSIgaW49InNoYWRvd09mZnNldE91dGVyMSIvPjxmZUNvbG9yTWF0cml4IHZhbHVlcz0iMCAwIDAgMCAwIDAgMCAwIDAgMCAwIDAgMCAwIDAgMCAwIDAgMC4wNyAwIiBpbj0ic2hhZG93Qmx1ck91dGVyMSIvPjwvZmlsdGVyPjxyZWN0IHk9IjE4OC4xMTUiIHg9IjIwMS40MjQiIHdpZHRoPSIxMDUuOTAzIiByeD0iMy4wMjgiIGhlaWdodD0iNzAuNjczIiBpZD0iZSIvPjxmaWx0ZXIgeT0iLTIxLjIlIiB4PSItMTQuMiUiIHdpZHRoPSIxMjguMyUiIGhlaWdodD0iMTQyLjQlIiBpZD0iZiI+PGZlTW9ycGhvbG9neSByZXN1bHQ9InNoYWRvd1NwcmVhZE91dGVyMSIgcmFkaXVzPSIuNSIgb3BlcmF0b3I9ImRpbGF0ZSIgaW49IlNvdXJjZUFscGhhIi8+PGZlT2Zmc2V0IHJlc3VsdD0ic2hhZG93T2Zmc2V0T3V0ZXIxIiBpbj0ic2hhZG93U3ByZWFkT3V0ZXIxIi8+PGZlR2F1c3NpYW5CbHVyIHN0ZERldmlhdGlvbj0iNC41IiByZXN1bHQ9InNoYWRvd0JsdXJPdXRlcjEiIGluPSJzaGFkb3dPZmZzZXRPdXRlcjEiLz48ZmVDb2xvck1hdHJpeCB2YWx1ZXM9IjAgMCAwIDAgMCAwIDAgMCAwIDAgMCAwIDAgMCAwIDAgMCAwIDAuMDcgMCIgaW49InNoYWRvd0JsdXJPdXRlcjEiLz48L2ZpbHRlcj48cmVjdCB3aWR0aD0iMjY1Ljc5NyIgcng9IjMuMDI4IiBoZWlnaHQ9IjI5LjEwMSIgaWQ9ImciLz48ZmlsdGVyIHk9Ii01MS41JSIgeD0iLTUuNiUiIHdpZHRoPSIxMTEuMyUiIGhlaWdodD0iMjAzLjElIiBpZD0iaCI+PGZlTW9ycGhvbG9neSByZXN1bHQ9InNoYWRvd1NwcmVhZE91dGVyMSIgcmFkaXVzPSIuNSIgb3BlcmF0b3I9ImRpbGF0ZSIgaW49IlNvdXJjZUFscGhhIi8+PGZlT2Zmc2V0IHJlc3VsdD0ic2hhZG93T2Zmc2V0T3V0ZXIxIiBpbj0ic2hhZG93U3ByZWFkT3V0ZXIxIi8+PGZlR2F1c3NpYW5CbHVyIHN0ZERldmlhdGlvbj0iNC41IiByZXN1bHQ9InNoYWRvd0JsdXJPdXRlcjEiIGluPSJzaGFkb3dPZmZzZXRPdXRlcjEiLz48ZmVDb2xvck1hdHJpeCB2YWx1ZXM9IjAgMCAwIDAgMCAwIDAgMCAwIDAgMCAwIDAgMCAwIDAgMCAwIDAuMDcgMCIgaW49InNoYWRvd0JsdXJPdXRlcjEiLz48L2ZpbHRlcj48cmVjdCB5PSIyNjkuMTgyIiB4PSIyMDEuNDI0IiB3aWR0aD0iMTA1LjkwMyIgcng9IjMuMDI4IiBoZWlnaHQ9IjcwLjY3MyIgaWQ9ImkiLz48ZmlsdGVyIHk9Ii0yMS4yJSIgeD0iLTE0LjIlIiB3aWR0aD0iMTI4LjMlIiBoZWlnaHQ9IjE0Mi40JSIgaWQ9ImoiPjxmZU1vcnBob2xvZ3kgcmVzdWx0PSJzaGFkb3dTcHJlYWRPdXRlcjEiIHJhZGl1cz0iLjUiIG9wZXJhdG9yPSJkaWxhdGUiIGluPSJTb3VyY2VBbHBoYSIvPjxmZU9mZnNldCByZXN1bHQ9InNoYWRvd09mZnNldE91dGVyMSIgaW49InNoYWRvd1NwcmVhZE91dGVyMSIvPjxmZUdhdXNzaWFuQmx1ciBzdGREZXZpYXRpb249IjQuNSIgcmVzdWx0PSJzaGFkb3dCbHVyT3V0ZXIxIiBpbj0ic2hhZG93T2Zmc2V0T3V0ZXIxIi8+PGZlQ29sb3JNYXRyaXggdmFsdWVzPSIwIDAgMCAwIDAgMCAwIDAgMCAwIDAgMCAwIDAgMCAwIDAgMCAwLjA3IDAiIGluPSJzaGFkb3dCbHVyT3V0ZXIxIi8+PC9maWx0ZXI+PHJlY3QgeT0iMTg4LjExNSIgeD0iMzE3LjcxIiB3aWR0aD0iMTA1LjkwMyIgcng9IjMuMDI4IiBoZWlnaHQ9IjcwLjY3MyIgaWQ9ImsiLz48ZmlsdGVyIHk9Ii0yMS4yJSIgeD0iLTE0LjIlIiB3aWR0aD0iMTI4LjMlIiBoZWlnaHQ9IjE0Mi40JSIgaWQ9ImwiPjxmZU1vcnBob2xvZ3kgcmVzdWx0PSJzaGFkb3dTcHJlYWRPdXRlcjEiIHJhZGl1cz0iLjUiIG9wZXJhdG9yPSJkaWxhdGUiIGluPSJTb3VyY2VBbHBoYSIvPjxmZU9mZnNldCByZXN1bHQ9InNoYWRvd09mZnNldE91dGVyMSIgaW49InNoYWRvd1NwcmVhZE91dGVyMSIvPjxmZUdhdXNzaWFuQmx1ciBzdGREZXZpYXRpb249IjQuNSIgcmVzdWx0PSJzaGFkb3dCbHVyT3V0ZXIxIiBpbj0ic2hhZG93T2Zmc2V0T3V0ZXIxIi8+PGZlQ29sb3JNYXRyaXggdmFsdWVzPSIwIDAgMCAwIDAgMCAwIDAgMCAwIDAgMCAwIDAgMCAwIDAgMCAwLjA3IDAiIGluPSJzaGFkb3dCbHVyT3V0ZXIxIi8+PC9maWx0ZXI+PHJlY3QgeT0iMjY5LjE4MiIgeD0iMzE3LjcxIiB3aWR0aD0iMTA1LjkwMyIgcng9IjMuMDI4IiBoZWlnaHQ9IjcwLjY3MyIgaWQ9Im0iLz48ZmlsdGVyIHk9Ii0yMS4yJSIgeD0iLTE0LjIlIiB3aWR0aD0iMTI4LjMlIiBoZWlnaHQ9IjE0Mi40JSIgaWQ9Im4iPjxmZU1vcnBob2xvZ3kgcmVzdWx0PSJzaGFkb3dTcHJlYWRPdXRlcjEiIHJhZGl1cz0iLjUiIG9wZXJhdG9yPSJkaWxhdGUiIGluPSJTb3VyY2VBbHBoYSIvPjxmZU9mZnNldCByZXN1bHQ9InNoYWRvd09mZnNldE91dGVyMSIgaW49InNoYWRvd1NwcmVhZE91dGVyMSIvPjxmZUdhdXNzaWFuQmx1ciBzdGREZXZpYXRpb249IjQuNSIgcmVzdWx0PSJzaGFkb3dCbHVyT3V0ZXIxIiBpbj0ic2hhZG93T2Zmc2V0T3V0ZXIxIi8+PGZlQ29sb3JNYXRyaXggdmFsdWVzPSIwIDAgMCAwIDAgMCAwIDAgMCAwIDAgMCAwIDAgMCAwIDAgMCAwLjA3IDAiIGluPSJzaGFkb3dCbHVyT3V0ZXIxIi8+PC9maWx0ZXI+PHJlY3QgeT0iMTg4LjExNSIgeD0iNDMyLjk1OCIgd2lkdGg9IjEwNS45MDMiIHJ4PSIzLjAyOCIgaGVpZ2h0PSI3MC42NzMiIGlkPSJvIi8+PGZpbHRlciB5PSItMjEuMiUiIHg9Ii0xNC4yJSIgd2lkdGg9IjEyOC4zJSIgaGVpZ2h0PSIxNDIuNCUiIGlkPSJwIj48ZmVNb3JwaG9sb2d5IHJlc3VsdD0ic2hhZG93U3ByZWFkT3V0ZXIxIiByYWRpdXM9Ii41IiBvcGVyYXRvcj0iZGlsYXRlIiBpbj0iU291cmNlQWxwaGEiLz48ZmVPZmZzZXQgcmVzdWx0PSJzaGFkb3dPZmZzZXRPdXRlcjEiIGluPSJzaGFkb3dTcHJlYWRPdXRlcjEiLz48ZmVHYXVzc2lhbkJsdXIgc3RkRGV2aWF0aW9uPSI0LjUiIHJlc3VsdD0ic2hhZG93Qmx1ck91dGVyMSIgaW49InNoYWRvd09mZnNldE91dGVyMSIvPjxmZUNvbG9yTWF0cml4IHZhbHVlcz0iMCAwIDAgMCAwIDAgMCAwIDAgMCAwIDAgMCAwIDAgMCAwIDAgMC4wNyAwIiBpbj0ic2hhZG93Qmx1ck91dGVyMSIvPjwvZmlsdGVyPjxyZWN0IHk9IjI2OS4xODIiIHg9IjQzMi45NTgiIHdpZHRoPSIxMDUuOTAzIiByeD0iMy4wMjgiIGhlaWdodD0iNzAuNjczIiBpZD0icSIvPjxmaWx0ZXIgeT0iLTIxLjIlIiB4PSItMTQuMiUiIHdpZHRoPSIxMjguMyUiIGhlaWdodD0iMTQyLjQlIiBpZD0iciI+PGZlTW9ycGhvbG9neSByZXN1bHQ9InNoYWRvd1NwcmVhZE91dGVyMSIgcmFkaXVzPSIuNSIgb3BlcmF0b3I9ImRpbGF0ZSIgaW49IlNvdXJjZUFscGhhIi8+PGZlT2Zmc2V0IHJlc3VsdD0ic2hhZG93T2Zmc2V0T3V0ZXIxIiBpbj0ic2hhZG93U3ByZWFkT3V0ZXIxIi8+PGZlR2F1c3NpYW5CbHVyIHN0ZERldmlhdGlvbj0iNC41IiByZXN1bHQ9InNoYWRvd0JsdXJPdXRlcjEiIGluPSJzaGFkb3dPZmZzZXRPdXRlcjEiLz48ZmVDb2xvck1hdHJpeCB2YWx1ZXM9IjAgMCAwIDAgMCAwIDAgMCAwIDAgMCAwIDAgMCAwIDAgMCAwIDAuMDcgMCIgaW49InNoYWRvd0JsdXJPdXRlcjEiLz48L2ZpbHRlcj48bWFzayBmaWxsPSIjZmZmIiBpZD0icyI+PHBhdGggZmlsbC1ydWxlPSJldmVub2RkIiBmaWxsPSIjZmZmIiBkPSJtMCAwaDI4Ljk4M3YyOS4wMTJoLTI4Ljk4M3oiLz48L21hc2s+PC9kZWZzPjxnIGZpbGwtcnVsZT0iZXZlbm9kZCIgZmlsbD0ibm9uZSI+PHBhdGggZmlsbD0iI2Y5ZjlmYSIgZD0ibTYuNzI4IDBoNjEwLjU0NGE2LjcyOCA2LjcyOCAwIDAgMSA2LjcyOCA2LjcyOHY0MTIuMDY3YTQuMjA1IDQuMjA1IDAgMCAxIC00LjIwNSA0LjIwNWgtNjE1LjU5YTQuMjA1IDQuMjA1IDAgMCAxIC00LjIwNS00LjIwNXYtNDEyLjA2N2E2LjcyOCA2LjcyOCAwIDAgMSA2LjcyOC02LjcyOHoiLz48dXNlIHhsaW5rOmhyZWY9IiNhIiBmaWx0ZXI9InVybCgjYikiIGZpbGw9IiMwMDAiLz48dXNlIHhsaW5rOmhyZWY9IiNhIiBmaWxsPSIjZmZmIi8+PHBhdGggZmlsbC1ydWxlPSJub256ZXJvIiBmaWxsPSIjODg4IiBkPSJtMTM4LjA5IDIzOC4wMDJjLTguMDI4IDAtMTQuNTM2LTYuNTE0LTE0LjUzNi0xNC41NXM2LjUwOC0xNC41NSAxNC41MzYtMTQuNTUgMTQuNTM2IDYuNTE0IDE0LjUzNiAxNC41NS02LjUwOCAxNC41NS0xNC41MzYgMTQuNTV6bTkuNjk1LTE0LjU1YTIuMTIgMi4xMiAwIDEgMCAtMy41OS0xLjQ1NSAxMC4zNDIgMTAuMzQyIDAgMCAwIC01LjU5Ni0xLjc5bC45NDQtNC41NCAzLjExMS42NTVhMS40NTQgMS40NTQgMCAxIDAgLjE4OS0uODg3bC0zLjU2MS0uNzEzYS40NS40NSAwIDAgMCAtLjUzOC4zNWwtMS4wNzYgNS4wNDhjLTIuMDIzLjAzLTMuOTk0LjY1My01LjY2OSAxLjc5YTIuMTIgMi4xMiAwIDAgMCAtMy41NzYgMS41MTUgMi4xMjUgMi4xMjUgMCAwIDAgMS4yMzYgMS45NjIgNC4xOCA0LjE4IDAgMCAwIDAgLjY0YzAgMy4yNiAzLjc5NCA1LjkwOCA4LjQ3NCA1LjkwOCA0LjY4MSAwIDguNDc1LTIuNjQ4IDguNDc1LTUuOTA3YTQuMTggNC4xOCAwIDAgMCAwLS42NCAyLjEyNSAyLjEyNSAwIDAgMCAxLjE3Ny0xLjkzNnptLTE0LjUzNiAxLjQ1NWExLjQ1NCAxLjQ1NCAwIDEgMSAyLjkxLS4wMDEgMS40NTQgMS40NTQgMCAwIDEgLTIuOTEuMDAxem04LjQ0NiA0LjAwMWE1LjU3OCA1LjU3OCAwIDAgMSAtMy41OSAxLjEyIDUuNTc4IDUuNTc4IDAgMCAxIC0zLjU5LTEuMTIuMzkzLjM5MyAwIDAgMSAuNTUxLS41NTIgNC43NSA0Ljc1IDAgMCAwIDMuMDI0LjkxNiA0Ljc2NCA0Ljc2NCAwIDAgMCAzLjAzOC0uODg3LjQwNi40MDYgMCAxIDEgLjU2Ny41ODJ6bS0uMjYyLTIuNDg4YTEuNDU0IDEuNDU0IDAgMSAxIDEuNDU0LTEuNDU1IDEuNDU2IDEuNDU2IDAgMCAxIC0xLjQ2OCAxLjUxNHoiLz48dXNlIHhsaW5rOmhyZWY9IiNjIiBmaWx0ZXI9InVybCgjZCkiIGZpbGw9IiMwMDAiLz48dXNlIHhsaW5rOmhyZWY9IiNjIiBmaWxsPSIjZmZmIi8+PHBhdGggZmlsbD0iIzg4OCIgZD0ibTE1Mi41MTggMjk3LjAxOGMtLjEzIDIuOTI0LTIuMSA2LjkyOC01LjkxIDEyLjAxLTMuOTQgNS4zMDctNy4yNzMgNy45NjItMTAgNy45NjItMS42OSAwLTMuMTE5LTEuNjE2LTQuMjg2LTQuODQ5bC0yLjMzOS04Ljg5Yy0uODY3LTMuMjMyLTEuNzk3LTQuODUtMi43OTItNC44NS0uMjE3IDAtLjk3NS40NzMtMi4yNzQgMS40MTVsLTEuMzYzLTEuODJjMS40My0xLjMwMyAyLjg0LTIuNjA1IDQuMjI5LTMuOTEgMS45MDctMS43MDggMy4zNC0yLjYwNiA0LjI5NC0yLjY5NyAyLjI1NC0uMjI1IDMuNjQyIDEuMzczIDQuMTYzIDQuNzk0LjU2NCAzLjY5Ljk1NCA1Ljk4NSAxLjE3MiA2Ljg4NC42NSAzLjA2MiAxLjM2NiA0LjU5MiAyLjE0NyA0LjU5Mi42MDYgMCAxLjUxNy0uOTkzIDIuNzMyLTIuOTggMS4yMTMtMS45ODYgMS44NjMtMy40OTcgMS45NS00LjUzNi4xNzUtMS43MTQtLjQ3Ni0yLjU3My0xLjk1LTIuNTczLS42OTMgMC0xLjQwOS4xNjUtMi4xNDQuNDkyIDEuNDI0LTQuODM1IDQuMTQ1LTcuMTgzIDguMTYtNy4wNSAyLjk3OC4wOTEgNC4zODIgMi4wOTMgNC4yMSA2LjAwNiIvPjx1c2UgeGxpbms6aHJlZj0iI2UiIGZpbHRlcj0idXJsKCNmKSIgZmlsbD0iIzAwMCIvPjx1c2UgeGxpbms6aHJlZj0iI2UiIGZpbGw9IiNmZmYiLz48cGF0aCB0cmFuc2Zvcm09InRyYW5zbGF0ZSgyMzkuODQgMjA4LjkwMikiIG1hc2s9InVybCgjcykiIGZpbGw9IiM4ODgiIGQ9Im0yMy4wNjMgMTIuODZjLTQuNjctMi43NzctMTIuMzc2LTMuMDMyLTE2LjgzNS0xLjY3OGExLjM1NyAxLjM1NyAwIDAgMSAtLjc4Ny0yLjU5NmM1LjExOS0xLjU1NiAxMy42MjgtMS4yNTUgMTkuMDA2IDEuOTRhMS4zNTcgMS4zNTcgMCAwIDEgLTEuMzg0IDIuMzM0bS0uMTUyIDQuMTEzYTEuMTMgMS4xMyAwIDAgMSAtMS41NTUuMzcyYy0zLjg5NC0yLjM5Ni05LjgzMi0zLjA5LTE0LjQ0LTEuNjlhMS4xMzEgMS4xMzEgMCAwIDEgLS42NTYtMi4xNjRjNS4yNjMtMS41OTkgMTEuODA2LS44MjUgMTYuMjc5IDEuOTI3LjUzLjMyNy42OTggMS4wMjQuMzcyIDEuNTU1bS0xLjc3NCAzLjk1YS45MDIuOTAyIDAgMCAxIC0xLjI0Mi4zYy0zLjQwMy0yLjA4MS03LjY4Ni0yLjU1Mi0xMi43My0xLjM5OGEuOTAzLjkwMyAwIDEgMSAtLjQwMi0xLjc2M2M1LjUyLTEuMjYzIDEwLjI1NS0uNzIgMTQuMDc1IDEuNjE3LjQyNS4yNi41Ni44MTcuMyAxLjI0NG0tNi42NDgtMjAuOTIzYy04LjAwMiAwLTE0LjQ4OSA2LjQ5NS0xNC40ODkgMTQuNTA2IDAgOC4wMTIgNi40ODcgMTQuNTA2IDE0LjQ5IDE0LjUwNiA4LjAwNCAwIDE0LjQ5Mi02LjQ5NCAxNC40OTItMTQuNTA2IDAtOC4wMTEtNi40ODgtMTQuNTA2LTE0LjQ5My0xNC41MDYiLz48ZyB0cmFuc2Zvcm09InRyYW5zbGF0ZSgxNzguNTgyIDExOS41MikiPjx1c2UgeGxpbms6aHJlZj0iI2ciIGZpbHRlcj0idXJsKCNoKSIgZmlsbD0iIzAwMCIvPjx1c2UgeGxpbms6aHJlZj0iI2ciIGZpbGw9IiNmZmYiLz48cmVjdCB5PSIxMS42NCIgeD0iOS44NDQiIHdpZHRoPSIxMDkuMjcyIiByeD0iLjg0MSIgaGVpZ2h0PSI1LjgyIiBmaWxsLXJ1bGU9Im5vbnplcm8iIGZpbGw9IiNiYmIiLz48ZyB0cmFuc2Zvcm09InRyYW5zbGF0ZSgyMzguMjMzIDguNzMpIiBzdHJva2Utd2lkdGg9IjEuMTIxIiBzdHJva2U9IiM5YjliOWIiPjxlbGxpcHNlIHJ5PSI0LjUyNyIgcng9IjQuNTk0IiBjeT0iNC41MjciIGN4PSI0LjU5NCIvPjxwYXRoIHN0cm9rZS1saW5lY2FwPSJyb3VuZCIgZD0ibTcuODc1IDcuNzYgMy45MzggMy44OCIvPjwvZz48L2c+PHVzZSB4bGluazpocmVmPSIjaSIgZmlsdGVyPSJ1cmwoI2opIiBmaWxsPSIjMDAwIi8+PHVzZSB4bGluazpocmVmPSIjaSIgZmlsbD0iI2ZmZiIvPjxwYXRoIGZpbGwtcnVsZT0ibm9uemVybyIgZmlsbD0iIzg4OCIgZD0ibTI0Ni4zMSAyODkuOTY4IDguNTQ2IDUuNDU2LTguNTQ3IDUuNDU3LTguNTQ1LTUuNDU3IDguNTQ1LTUuNDU2em0xNy4wOTEgMCA4LjU0NiA1LjQ1Ni04LjU0NiA1LjQ1Ny04LjU0NS01LjQ1N3ptLTI1LjYzNyAxNi4zNyA4LjU0NS01LjQ1NyA4LjU0NyA1LjQ1Ni04LjU0NyA1LjQ1Ny04LjU0NS01LjQ1N3ptMjUuNjM3LTUuNDU3IDguNTQ2IDUuNDU2LTguNTQ2IDUuNDU3LTguNTQ1LTUuNDU3em0tMTcuMDkyIDEyLjczMSA4LjU0Ny01LjQ1NiA4LjU0NSA1LjQ1Ni04LjU0NSA1LjQ1N3oiLz48dXNlIHhsaW5rOmhyZWY9IiNrIiBmaWx0ZXI9InVybCgjbCkiIGZpbGw9IiMwMDAiLz48dXNlIHhsaW5rOmhyZWY9IiNrIiBmaWxsPSIjZmZmIi8+PHBhdGggZmlsbD0iIzg4OCIgZD0ibTM3MC42NTggMjA4Ljk2YzMuOTQ2IDAgNC40NC4wMTYgNS45OS4wODcgMS41NDguMDcgMi42MDQuMzE2IDMuNTI4LjY3NS45NTYuMzcgMS43NjYuODY3IDIuNTc0IDEuNjc0YTcuMTE1IDcuMTE1IDAgMCAxIDEuNjc2IDIuNTcxYy4zNi45MjQuNjA1IDEuOTc5LjY3NSAzLjUyNC4wNzEgMS41NDguMDg4IDIuMDQzLjA4OCA1Ljk4NSAwIDMuOTQzLS4wMTcgNC40MzctLjA4OCA1Ljk4Ni0uMDcgMS41NDUtLjMxNiAyLjYtLjY3NSAzLjUyM2E3LjExNCA3LjExNCAwIDAgMSAtMS42NzYgMi41NzIgNy4xMjQgNy4xMjQgMCAwIDEgLTIuNTc0IDEuNjc0Yy0uOTI0LjM1OS0xLjk4LjYwNC0zLjUyNy42NzUtMS41NS4wNy0yLjA0NS4wODctNS45OTEuMDg3LTMuOTQ3IDAtNC40NDItLjAxNi01Ljk5Mi0uMDg3LTEuNTQ2LS4wNy0yLjYwMy0uMzE2LTMuNTI3LS42NzVhNy4xMjQgNy4xMjQgMCAwIDEgLTIuNTc0LTEuNjc0IDcuMTE1IDcuMTE1IDAgMCAxIC0xLjY3Ni0yLjU3MmMtLjM1OS0uOTIzLS42MDUtMS45NzgtLjY3NS0zLjUyMy0uMDctMS41NDktLjA4OC0yLjA0My0uMDg4LTUuOTg2IDAtMy45NDIuMDE3LTQuNDM3LjA4OC01Ljk4NS4wNy0xLjU0NS4zMTYtMi42LjY3NS0zLjUyNGE3LjExNSA3LjExNSAwIDAgMSAxLjY3Ni0yLjU3MSA3LjEyMyA3LjEyMyAwIDAgMSAyLjU3NC0xLjY3NGMuOTI0LS4zNiAxLjk4LS42MDUgMy41MjctLjY3NSAxLjU1LS4wNyAyLjA0NS0uMDg4IDUuOTkyLS4wODh6bTAgMi42MTVjLTMuODggMC00LjM0LjAxNS01Ljg3Mi4wODUtMS40MTcuMDY0LTIuMTg2LjMtMi42OTguNWE0LjUwMiA0LjUwMiAwIDAgMCAtMS42NzEgMS4wODUgNC40OTcgNC40OTcgMCAwIDAgLTEuMDg3IDEuNjdjLS4yLjUxMS0uNDM2IDEuMjgtLjUgMi42OTUtLjA3IDEuNTMxLS4wODUgMS45OS0uMDg1IDUuODY2IDAgMy44NzcuMDE0IDQuMzM2LjA4NCA1Ljg2Ni4wNjUgMS40MTYuMzAyIDIuMTg0LjUgMi42OTZhNC40OTggNC40OTggMCAwIDAgMS4wODggMS42N2MuNTA4LjUwNy45OTIuODIyIDEuNjcgMS4wODUuNTEzLjE5OSAxLjI4Mi40MzUgMi42OTkuNSAxLjUzMi4wNyAxLjk5MS4wODUgNS44NzIuMDg1IDMuODggMCA0LjM0LS4wMTUgNS44NzEtLjA4NSAxLjQxNy0uMDY1IDIuMTg3LS4zMDEgMi42OTktLjVhNC41MDIgNC41MDIgMCAwIDAgMS42Ny0xLjA4NiA0LjQ5OSA0LjQ5OSAwIDAgMCAxLjA4OC0xLjY2OWMuMTk5LS41MTIuNDM1LTEuMjguNS0yLjY5Ni4wNy0xLjUzLjA4NS0xLjk5LjA4NS01Ljg2NnMtLjAxNS00LjMzNS0uMDg1LTUuODY2Yy0uMDY1LTEuNDE1LS4zMDEtMi4xODQtLjUtMi42OTVhNC40OTkgNC40OTkgMCAwIDAgLTEuMDg3LTEuNjcgNC41MDMgNC41MDMgMCAwIDAgLTEuNjcxLTEuMDg1Yy0uNTEyLS4yLTEuMjgyLS40MzYtMi42OTktLjUtMS41MzItLjA3LTEuOTkxLS4wODUtNS44NzEtLjA4NXptMCAxNi43NGE0Ljg0MSA0Ljg0MSAwIDAgMCA0Ljg0My00LjgzOSA0Ljg0MSA0Ljg0MSAwIDAgMCAtNC44NDMtNC44MzkgNC44NDEgNC44NDEgMCAwIDAgLTQuODQ0IDQuODQgNC44NDEgNC44NDEgMCAwIDAgNC44NDQgNC44Mzh6bTAtMTIuMjkzYzQuMTIgMCA3LjQ2MiAzLjMzNyA3LjQ2MiA3LjQ1NHMtMy4zNDEgNy40NTUtNy40NjIgNy40NTUtNy40NjItMy4zMzgtNy40NjItNy40NTUgMy4zNC03LjQ1NCA3LjQ2Mi03LjQ1NHptOS41LS4yOTVhMS43NDMgMS43NDMgMCAxIDEgLTMuNDg2LS4wMDIgMS43NDMgMS43NDMgMCAwIDEgMy40ODYuMDAyeiIvPjx1c2UgeGxpbms6aHJlZj0iI20iIGZpbHRlcj0idXJsKCNuKSIgZmlsbD0iIzAwMCIvPjx1c2UgeGxpbms6aHJlZj0iI20iIGZpbGw9IiNmZmYiLz48cGF0aCBmaWxsPSIjODg4IiBkPSJtMzgzLjEyMSAyODkuNjM1YzAgMy42OTYtMy4wNDcgNS42NC02LjA5NCA1LjY0djYuMDMxbDMuMjUgMi41Mjl2LjE5NGwtMy4yNSAyLjUzdjcuOTc1YzIuMjM1LTEuMTY4IDQuMDYzLTMuNTAyIDUuMjgyLTYuMDNoLjQwNmMwIDYuNDE5LTUuMjgxIDEyLjY0My0xMy40MDcgMTIuNjQzLTcuNTE2IDAtMTQuMjItNS44MzUtMTQuMjItMTMuNjE2IDAtNi42MTQgNS40ODUtMTIuMDYgMTEuNTgtMTMuNjE3bC4yMDIuNTg0Yy0yLjIzNCAxLjE2Ny00LjQ2OSAyLjkxOC01LjI4MSA1LjQ0NmwxMC4xNTctNC4yOHYxMy40MjNsLTguMzMgMy44OWMyLjIzNSAyLjMzNSA0Ljg3NiAzLjExMyA3LjkyMyAzLjExMyAxLjYyNSAwIDMuNDU0LS4xOTUgNS4wNzktMS4xNjd2LTguMzY1bC0zLjA0Ny0yLjUyOXYtLjE5NGwzLjA0Ny0yLjUyOXYtNi4wM2MtMS42MjUtLjE5NS00LjY3Mi0uNzc4LTcuNTE2LTEuNTU2LTMuMjUtLjk3My01LjY4OC0xLjc1MS03LjUxNi0xLjc1MS0yLjAzMiAwLTIuODQ0IDEuMzYyLTIuODQ0IDIuMTQgMCAxLjE2Ny42MDkgMS41NTYgMS4wMTUgMS45NDVsLS4yMDMuMzg5Yy0uODEyLS4zOS0zLjA0Ny0xLjM2Mi0zLjA0Ny00LjI4IDAtMy4zMDcgMi44NDQtNi4yMjQgNi45MDctNi4yMjQgMi4wMzEgMCA0LjQ2OS43NzggNy4xMSAxLjc1IDIuMjM0Ljc3OCA1LjI4MSAxLjU1NyA2LjcwMyAxLjU1NyAxLjgyOSAwIDIuNDM4LTEuMTY4IDIuNDM4LTEuOTQ2IDAtMS4zNjEtMS40MjItMS45NDUtMy4yNS0xLjk0NXYtLjU4NGMzLjA0NyAwIDYuOTA2Ljk3MyA2LjkwNiA0Ljg2NHptLTE3LjY3MyAyMS4zOTd2LTEyLjA2bC00LjI2NiAxLjc1Yy0uNDA2IDEuMTY4LS40MDYgMi43MjQtLjQwNiA0LjA4NSAwIDMuMzA3LjgxMyA1LjY0MiAyLjIzNSA3LjM5MnoiLz48dXNlIHhsaW5rOmhyZWY9IiNvIiBmaWx0ZXI9InVybCgjcCkiIGZpbGw9IiMwMDAiLz48dXNlIHhsaW5rOmhyZWY9IiNvIiBmaWxsPSIjZmZmIi8+PHBhdGggZD0ibTQ2Ni4xODMgMjAzLjcwNWgzOS40NTR2MzkuNDk1aC0zOS40NTR6Ii8+PHBhdGggZmlsbC1ydWxlPSJub256ZXJvIiBmaWxsPSIjODg4IiBkPSJtNDgxLjMzNSAyMzMuNDgzYzkuMzA2IDAgMTQuMzk1LTcuNzE4IDE0LjM5NS0xNC40MSAwLS4yMTkgMC0uNDM3LS4wMTQtLjY1NGExMC4zIDEwLjMgMCAwIDAgMi41MjQtMi42MjIgMTAuMDkgMTAuMDkgMCAwIDEgLTIuOTA2Ljc5NyA1LjA4MSA1LjA4MSAwIDAgMCAyLjIyNC0yLjgwMWMtLjk5My41OS0yLjA4IDEuMDA2LTMuMjEzIDEuMjNhNS4wNiA1LjA2IDAgMCAwIC02LjA3OC0uOTk3IDUuMDcgNS4wNyAwIDAgMCAtMi41NDMgNS42MTUgMTQuMzU4IDE0LjM1OCAwIDAgMSAtMTAuNDI3LTUuMjkxIDUuMDcxIDUuMDcxIDAgMCAwIDEuNTY2IDYuNzYgNS4wMTggNS4wMTggMCAwIDEgLTIuMjk2LS42MzR2LjA2NGE1LjA2NSA1LjA2NSAwIDAgMCA0LjA1OSA0Ljk2NSA1LjA0NiA1LjA0NiAwIDAgMSAtMi4yODQuMDg3IDUuMDY2IDUuMDY2IDAgMCAwIDQuNzI2IDMuNTE3IDEwLjE0NSAxMC4xNDUgMCAwIDEgLTcuNDg3IDIuMDk5IDE0LjMxMiAxNC4zMTIgMCAwIDAgNy43NTQgMi4yNyIvPjx1c2UgeGxpbms6aHJlZj0iI3EiIGZpbHRlcj0idXJsKCNyKSIgZmlsbD0iIzAwMCIvPjx1c2UgeGxpbms6aHJlZj0iI3EiIGZpbGw9IiNmZmYiLz48cGF0aCBmaWxsLXJ1bGU9Im5vbnplcm8iIGZpbGw9IiM4ODgiIGQ9Im00NzcuNTY0IDMwOC4zMmEzLjAzMyAzLjAzMyAwIDAgMSAtMy4wMjUgMy4wMjggMy4wMzMgMy4wMzMgMCAwIDEgLTMuMDI0LTMuMDI4IDMuMDMzIDMuMDMzIDAgMCAxIDMuMDI0LTMuMDI3aDMuMDI1em0xLjUyNCAwYTMuMDMzIDMuMDMzIDAgMCAxIDMuMDI0LTMuMDI3IDMuMDMzIDMuMDMzIDAgMCAxIDMuMDI0IDMuMDI3djcuNThhMy4wMzMgMy4wMzMgMCAwIDEgLTMuMDI0IDMuMDI4IDMuMDMzIDMuMDMzIDAgMCAxIC0zLjAyNC0zLjAyN3YtNy41OHptMy4wMjQtMTIuMTU2YTMuMDMzIDMuMDMzIDAgMCAxIC0zLjAyNC0zLjAyOCAzLjAzMyAzLjAzMyAwIDAgMSAzLjAyNC0zLjAyNyAzLjAzMyAzLjAzMyAwIDAgMSAzLjAyNCAzLjAyN3YzLjAyOHptMCAxLjUyNWEzLjAzMyAzLjAzMyAwIDAgMSAzLjAyNCAzLjAyOCAzLjAzMyAzLjAzMyAwIDAgMSAtMy4wMjQgMy4wMjdoLTcuNTczYTMuMDMzIDMuMDMzIDAgMCAxIC0zLjAyNC0zLjAyNyAzLjAzMyAzLjAzMyAwIDAgMSAzLjAyNC0zLjAyOHptMTIuMTQ0IDMuMDI4YTMuMDMzIDMuMDMzIDAgMCAxIDMuMDI1LTMuMDI4IDMuMDMzIDMuMDMzIDAgMCAxIDMuMDI0IDMuMDI4IDMuMDMzIDMuMDMzIDAgMCAxIC0zLjAyNCAzLjAyN2gtMy4wMjV6bS0xLjUyMyAwYTMuMDMzIDMuMDMzIDAgMCAxIC0zLjAyNSAzLjAyNyAzLjAzMyAzLjAzMyAwIDAgMSAtMy4wMjQtMy4wMjd2LTcuNThhMy4wMzMgMy4wMzMgMCAwIDEgMy4wMjQtMy4wMjggMy4wMzMgMy4wMzMgMCAwIDEgMy4wMjUgMy4wMjd2Ny41OHptLTMuMDI1IDEyLjE1NmEzLjAzMyAzLjAzMyAwIDAgMSAzLjAyNSAzLjAyOCAzLjAzMyAzLjAzMyAwIDAgMSAtMy4wMjUgMy4wMjcgMy4wMzMgMy4wMzMgMCAwIDEgLTMuMDI0LTMuMDI3di0zLjAyOHptMC0xLjUyNWEzLjAzMyAzLjAzMyAwIDAgMSAtMy4wMjQtMy4wMjggMy4wMzMgMy4wMzMgMCAwIDEgMy4wMjQtMy4wMjdoNy41NzNhMy4wMzMgMy4wMzMgMCAwIDEgMy4wMjQgMy4wMjcgMy4wMzMgMy4wMzMgMCAwIDEgLTMuMDI0IDMuMDI4eiIvPjxwYXRoIGZpbGwtcnVsZT0ibm9uemVybyIgZmlsbD0iIzJjMjgzMSIgZD0ibTQuMjA1IDBoNjE1LjU5YTQuMjA1IDQuMjA1IDAgMCAxIDQuMjA1IDQuMjA1djE5LjdoLTYyNHYtMTkuN2E0LjIwNSA0LjIwNSAwIDAgMSA0LjIwNS00LjIwNXoiLz48cGF0aCBmaWxsLXJ1bGU9Im5vbnplcm8iIGZpbGw9IiNlMWUxZTIiIGQ9Im0wIDQwMy4yNTNoNjI0djE1LjU0MmE0LjIwNSA0LjIwNSAwIDAgMSAtNC4yMDUgNC4yMDVoLTYxNS41OWE0LjIwNSA0LjIwNSAwIDAgMSAtNC4yMDUtNC4yMDV6bTM3LjM3OC00MDMuMjUzaDEyMy41NTR2MjMuOTA0aC0xMjMuNTU0em0tMzcuMzc4IDIzLjkwNGg2MjR2MzEuMTc5aC02MjR6Ii8+PHBhdGggZmlsbD0iI2ZmZiIgZD0ibTEzOS43NzIgMjloMzUzLjhjLjkzIDAgMS42ODMuNzUzIDEuNjgzIDEuNjgydjE2LjYzNmMwIC45MjktLjc1MyAxLjY4Mi0xLjY4MiAxLjY4MmgtMzUzLjgwMWExLjY4MiAxLjY4MiAwIDAgMSAtMS42ODItMS42ODJ2LTE2LjYzNmMwLS45MjkuNzUzLTEuNjgyIDEuNjgyLTEuNjgyeiIvPjxnIGZpbGwtcnVsZT0ibm9uemVybyI+PHJlY3QgeT0iMzMuMjU4IiB4PSI0NS42ODQiIHdpZHRoPSIxMS40MjEiIHJ4PSIxLjY4MiIgaGVpZ2h0PSIxMS40MzIiIGZpbGw9IiNiZWJlYmYiLz48cmVjdCB5PSIzMy4yNTgiIHg9IjYwMy4yMzUiIHdpZHRoPSIxMS40MjEiIHJ4PSIxLjY4MiIgaGVpZ2h0PSIxMS40MzIiIGZpbGw9IiNiZWJlYmYiLz48cmVjdCB5PSI4LjMxNCIgeD0iNjQuMzczIiB3aWR0aD0iNTYuMDY3IiByeD0iMS42ODIiIGhlaWdodD0iOC4zMTQiIGZpbGw9IiNiZWJlYmYiLz48cmVjdCB5PSIzNi4zNzYiIHg9IjE2Ny4xNjEiIHdpZHRoPSIxNTMuNjY0IiByeD0iLjg0MSIgaGVpZ2h0PSI2LjIzNiIgZmlsbD0iI2JiYiIvPjxyZWN0IHk9IjUuMTk3IiB4PSI0NS42ODQiIHdpZHRoPSIxNS41NzQiIHJ4PSIxLjY4MiIgaGVpZ2h0PSIxNS41OSIgZmlsbD0iI2JlYmViZiIvPjxyZWN0IHk9IjMzLjI1OCIgeD0iNjUuNDExIiB3aWR0aD0iMTEuNDIxIiByeD0iMS42ODIiIGhlaWdodD0iMTEuNDMyIiBmaWxsPSIjYmViZWJmIi8+PHJlY3QgeT0iMzMuMjU4IiB4PSI4NS4xMzgiIHdpZHRoPSIxMS40MjEiIHJ4PSIxLjY4MiIgaGVpZ2h0PSIxMS40MzIiIGZpbGw9IiNiZWJlYmYiLz48L2c+PGVsbGlwc2Ugcnk9IjEwLjkxMyIgcng9IjEwLjkwMiIgZmlsbD0iI2JlYmViZiIgY3k9IjM4Ljk3NCIgY3g9IjI0LjM5OSIvPjxwYXRoIGQ9Im05LjM0NCA0Ni43MjJoNjE0LjY1NnYuNzc5aC02MTQuNjU2eiIvPjxwYXRoIGZpbGw9IiM0YTRhNGEiIGQ9Im00OC41OTUgODkuMjU2Yy0uMDEtLjA2Mi0uMDE3LS4wOTUtLjAxNy0uMDk1LS4yMDkuMzczLS40NzEuNjktLjQ3MS42OSAwLTIuMjU3LTEuNjc4LTUuMjExLTIuNzY0LTYuODUzYTE2LjQ5NSAxNi40OTUgMCAwIDAgLS44MDktMS4xMzZjLS41NzQtLjcxLS44NjItMS42MjUtLjg2Mi0xLjYyNWEzLjUxIDMuNTEgMCAwIDAgLS40NTMgMS4wMTRjLS4wNTIuMTg4LS4wNzMuMzEzLS4wNzMuMzEzcy0uMTgyLS4yODUtLjcxNy0uNzkyYTEyLjM0OSAxMi4zNDkgMCAwIDAgLS43Mi0uNjI2Yy0xLjEtLjg5My0xLjQ1OS0yLjE5OC0xLjQ1OS0yLjE5OHMtLjU4LjU3NC0xLjEzNCAxLjUzNWE4LjE3IDguMTcgMCAwIDAgLS40MzguODc0IDYuNjM0IDYuNjM0IDAgMCAwIC0uNTU4IDIuNjA0YzAgMi45MDYgMi40NjUgNC44MDUgMi40NjUgNC44MDVzMS41MzIuNzc5IDEuNTMyIDQuMDQ1LTMuMTQzIDUuMzg0LTYuMTExIDUuMzg0LTQuMjkzLTIuMTA1LTQuMjkzLTIuMTA1YzIuNTk4LjY2NiAzLjQ5NS4wNDUgNC4yOTMtLjQ1OC43OTgtLjUwNCAxLjIyOC0uNDEyIDEuNzIzLS40MTJzLjUyNy0uNTQ5LS4yNC0xLjIwNWMwIDAtLjYwNi0uNTAzLTEuNDgzLS41MDMtLjg3OCAwLTEuNTMyLjQ4Ny0yLjQyNi40ODcgMCAwLTEuNDU0LS4wNy0yLjI1LTEuMjM1LS44MS0xLjE4OS0uMDMyLTIuNzMxIDEuMzA5LTEuNTI2IDAgMCAuMzY3LS40MjcuMjIzLTEuNjMyIDAgMCAuMTEyLS4yOSAxLjAzOC0uNjQxLjkyNS0uMzUxIDEuOTE0LS43MzMgMS45MTQtMS44IDAgMC0uMTExLS4zODItMS44MzUtLjQ0My0uNzU5LS4wMjctMS4xOTYtLjUxMy0xLjQ0Ny0xLjA0OCAwLS4wMDIuNTI3LTEuNDM4IDIuMDE4LTIuMjVhLjAyMi4wMjIgMCAwIDAgLS4wMDUtLjA0M2MtLjM0My0uMDgtMi4xNjktLjQxNS0zLjU2NiAxLjExNCAwIDAtLjQ2Mi0uMzY3LTEuODY2LS4zNjctLjMzNCAwLS42OTUuMDMyLTEuMDcuMTA3YTMuNzY4IDMuNzY4IDAgMCAxIC0uNjktLjg4OCAzLjU1MiAzLjU1MiAwIDAgMSAtLjQ2LTEuNzI3YzAtLjAyLS4wMjYtLjAzMS0uMDQxLS4wMTctMi4wOTEgMS44NzItMS43NzMgNC4zMTMtMS43NzMgNC4zMTMtLjg4OC45NDItMS42NzggMi4zMzktMi4xOTggNC4zNzYtLjAwNC4wMTMuMDE2LjAyLjAyMi4wMDguMTE4LS4yMTIuNDQ3LS43ODYuODAyLTEuMjc0IDAgMC0uODQ3IDEuMjcyLS44NjMgNC4zOTYgMCAuMDE0LjAyLjAxNy4wMjQuMDA0LjA2Mi0uMjE5LjIzLS44MTUuMzY2LTEuMzAzaC4wMDNjLS4wMDEuMDY5LS4wMDMuMTM4LS4wMDMuMjA4IDAgNi43NDUgNS43MTkgMTIuMjE0IDEyLjc3NCAxMi4yMTQgMi44MTEgMCA0LjUxNi0uNTkxIDUuNTI3LTEuMmE1LjE5IDUuMTkgMCAwIDAgLjM1Ny0uMjM1Yy43ODYtLjU2NiAxLjAwOS0xLjA4NSAxLjAwOS0xLjA4NWExMC4yNDIgMTAuMjQyIDAgMCAwIDEuODgtMS4wMTEgNi44ODMgNi44ODMgMCAwIDAgMS4xMzUtLjk3NSA1LjM2IDUuMzYgMCAwIDAgLjQ3Ny0uNTk4IDQuMTM1IDQuMTM1IDAgMCAwIC42NjQtMS41MmMuMDgzLS40MTQuMDU2LS42NzIuMDU2LS42NzIuMjktLjQzMS41MjgtLjg3LjcyNC0xLjMwOCAxLjE3MS0yLjYxMS44NDMtNS4xNy43Ni01LjY4NSIvPjwvZz48L3N2Zz4=;" vertex="1" parent="1">
          <mxGeometry x="-400" y="-280" width="191.77" height="130" as="geometry" />
        </mxCell>
      </root>
    </mxGraphModel>
  </diagram>
</mxfile>
